<svg width="25" height="23" viewBox="0 0 25 23" fill="none" xmlns="http://www.w3.org/2000/svg">
<path d="M7.17075 0.0176744C6.55869 0.0159166 5.98579 0.157323 5.35019 0.477831H5.35039C2.9959 1.66601 0.974902 4.89521 0.878027 7.58935L2.92139 8.28447C3.13281 5.2625 5.21909 2.0164 7.87876 0.67412H7.87886C8.08822 0.568244 8.30313 0.473707 8.52266 0.390917L7.43574 0.0271471C7.34752 0.0211334 7.25918 0.0179741 7.17075 0.0176744ZM10.0682 1.00351C9.55659 0.99912 8.95337 1.15454 8.2897 1.48901L8.28989 1.48882C5.93491 2.67729 3.91367 5.9084 3.81978 8.59018L11.4606 11.1898C11.6494 8.15171 13.7457 4.8728 16.4222 3.52207H16.4223L16.4224 3.52192C16.6263 3.41883 16.8354 3.32648 17.049 3.24526L10.4796 1.04624C10.3442 1.01883 10.2064 1.00455 10.0682 1.00361L10.0682 1.00351ZM18.6117 3.85132C18.1001 3.84692 17.4969 4.00229 16.8333 4.33667L16.8331 4.33677C14.4612 5.53393 12.4276 8.80322 12.3611 11.4961L14.6172 12.2637C14.8083 9.22715 16.9036 5.95146 19.5785 4.60156C19.793 4.49284 20.0136 4.39649 20.2392 4.31299L18.9431 3.8792C18.8335 3.86157 18.7227 3.85226 18.6118 3.85137L18.6117 3.85132ZM21.7149 4.92622C21.2136 4.93076 20.6361 5.08994 19.9896 5.41616C17.687 6.57827 15.7037 9.69287 15.5286 12.3375L24.0516 8.73765C24.0318 6.83286 23.5265 5.74429 22.8594 5.26684C22.7451 5.18501 22.6213 5.11719 22.4908 5.06484L22.4903 5.0665L22.2591 4.98916C22.0892 4.94585 21.9078 4.92436 21.7149 4.92617L21.7149 4.92622ZM0.874023 8.55185L0.872314 17.7063L2.90332 18.4131V9.24238L0.874023 8.55195V8.55185ZM3.81592 9.55273V18.7306L11.4469 21.3854V12.1488L10.0283 11.6661V17.4977L5.09399 15.8335V9.98755L3.81592 9.55273ZM24.0415 9.73257L15.5485 13.3198V22.5599L24.0414 18.9708V9.73252L24.0415 9.73257ZM6.00664 10.2981V15.1783L9.11577 16.227V11.3558L6.00669 10.298L6.00664 10.2981ZM7.53525 11.7042C8.00913 11.7042 8.39331 12.0883 8.39331 12.5622C8.39331 12.8718 8.22876 13.1423 7.98281 13.2932V14.6862H7.07021V13.2826C6.83398 13.1298 6.67725 12.8645 6.67725 12.5622C6.67725 12.0883 7.06138 11.7042 7.53525 11.7042ZM12.3593 12.4593V21.7028L14.636 22.4948V13.2339L12.3593 12.4593H12.3593Z" fill="white"/>
</svg>
