<svg width="29" height="29" viewBox="0 0 29 29" fill="none" xmlns="http://www.w3.org/2000/svg">
<g id="Property 1=material-symbols:favorite">
<path id="Vector" d="M14.5001 25.375L12.748 23.8042C10.714 21.9715 9.03237 20.3906 7.70321 19.0615C6.37404 17.7323 5.31675 16.5389 4.53133 15.4812C3.74591 14.4235 3.19733 13.452 2.88558 12.5667C2.57383 11.6814 2.41755 10.7751 2.41675 9.84792C2.41675 7.95486 3.05112 6.37396 4.31987 5.10521C5.58862 3.83646 7.16953 3.20209 9.06258 3.20209C10.1098 3.20209 11.1067 3.42362 12.0532 3.86667C12.9997 4.30973 13.8154 4.93403 14.5001 5.73959C15.1848 4.93403 16.0004 4.30973 16.947 3.86667C17.8935 3.42362 18.8904 3.20209 19.9376 3.20209C21.8306 3.20209 23.4115 3.83646 24.6803 5.10521C25.949 6.37396 26.5834 7.95486 26.5834 9.84792C26.5834 10.7743 26.4275 11.6806 26.1158 12.5667C25.804 13.4528 25.2551 14.4243 24.4688 15.4812C23.6826 16.5381 22.6253 17.7315 21.297 19.0615C19.9686 20.3914 18.287 21.9723 16.2522 23.8042L14.5001 25.375Z" fill="#FF0000"/>
</g>
</svg>
