<svg width="25" height="25" viewBox="0 0 25 25" fill="none" xmlns="http://www.w3.org/2000/svg">
<path d="M12.5 21.875L10.9896 20.5208C9.23615 18.941 7.7865 17.5781 6.64067 16.4323C5.49483 15.2865 4.58337 14.2576 3.90629 13.3458C3.22921 12.434 2.75629 11.5965 2.48754 10.8333C2.21879 10.0701 2.08407 9.28889 2.08337 8.48958C2.08337 6.85764 2.63025 5.49479 3.724 4.40104C4.81775 3.30729 6.1806 2.76042 7.81254 2.76042C8.71532 2.76042 9.57469 2.95139 10.3907 3.33333C11.2066 3.71528 11.9098 4.25347 12.5 4.94792C13.0903 4.25347 13.7934 3.71528 14.6094 3.33333C15.4254 2.95139 16.2848 2.76042 17.1875 2.76042C18.8195 2.76042 20.1823 3.30729 21.2761 4.40104C22.3698 5.49479 22.9167 6.85764 22.9167 8.48958C22.9167 9.2882 22.7823 10.0694 22.5136 10.8333C22.2448 11.5972 21.7716 12.4347 21.0938 13.3458C20.416 14.2569 19.5046 15.2858 18.3594 16.4323C17.2143 17.5788 15.7646 18.9417 14.0105 20.5208L12.5 21.875Z" fill="white"/>
</svg>
