<svg width="29" height="29" viewBox="0 0 29 29" fill="none" xmlns="http://www.w3.org/2000/svg">
<path d="M14.5 25.375L12.7479 23.8042C10.7139 21.9715 9.03228 20.3906 7.70311 19.0615C6.37395 17.7323 5.31666 16.5389 4.53124 15.4812C3.74582 14.4235 3.19724 13.452 2.88549 12.5667C2.57374 11.6814 2.41746 10.7751 2.41666 9.84792C2.41666 7.95486 3.05103 6.37396 4.31978 5.10521C5.58853 3.83646 7.16943 3.20209 9.06249 3.20209C10.1097 3.20209 11.1066 3.42362 12.0531 3.86667C12.9996 4.30973 13.8153 4.93403 14.5 5.73959C15.1847 4.93403 16.0003 4.30973 16.9469 3.86667C17.8934 3.42362 18.8903 3.20209 19.9375 3.20209C21.8305 3.20209 23.4114 3.83646 24.6802 5.10521C25.9489 6.37396 26.5833 7.95486 26.5833 9.84792C26.5833 10.7743 26.4274 11.6806 26.1157 12.5667C25.8039 13.4528 25.255 14.4243 24.4687 15.4812C23.6825 16.5381 22.6252 17.7315 21.2969 19.0615C19.9685 20.3914 18.2869 21.9723 16.2521 23.8042L14.5 25.375ZM14.5 22.1125C16.4333 20.3806 18.0243 18.8955 19.2729 17.6574C20.5215 16.4192 21.5083 15.3418 22.2333 14.4251C22.9583 13.5084 23.4618 12.6923 23.7437 11.977C24.0257 11.2617 24.1667 10.552 24.1667 9.84792C24.1667 8.63959 23.7639 7.63264 22.9583 6.82709C22.1528 6.02153 21.1458 5.61875 19.9375 5.61875C18.991 5.61875 18.1149 5.88539 17.3094 6.41867C16.5038 6.95195 15.95 7.63184 15.6479 8.45834H13.3521C13.05 7.63264 12.4962 6.95316 11.6906 6.41988C10.8851 5.8866 10.009 5.61956 9.06249 5.61875C7.85416 5.61875 6.84721 6.02153 6.04166 6.82709C5.2361 7.63264 4.83332 8.63959 4.83332 9.84792C4.83332 10.5528 4.9743 11.2629 5.25624 11.9782C5.53818 12.6935 6.04166 13.5092 6.76666 14.4251C7.49166 15.341 8.47846 16.4184 9.72707 17.6574C10.9757 18.8963 12.5667 20.3814 14.5 22.1125Z" fill="black"/>
</svg>
