<svg width="16" height="16" viewBox="0 0 16 16" fill="none" xmlns="http://www.w3.org/2000/svg">
<path d="M11.028 4.779C10.9084 4.59331 10.7714 4.41937 10.619 4.2595C10.37 3.7185 10.0685 3.073 9.732 2.5H10.771C10.9365 2.5 11.058 2.39 11.103 2.256C11.1267 2.19043 11.1288 2.11897 11.1088 2.05216C11.0888 1.98536 11.0479 1.92675 10.992 1.885C10.4465 1.475 9.535 1 8.125 1H8.11C7.13 1 6.2175 2.937 5.608 4.2525C5.45582 4.41461 5.31797 4.5896 5.196 4.7755H4.355C3.125 4.7755 2.125 5.7215 2.125 6.8855C2.125 8.0495 3.125 8.9955 4.35 8.9955H4.505C4.555 8.9985 4.60583 9 4.6575 9H5.3485C5.30894 9.59757 5.28643 10.1961 5.281 10.795C4.54275 11.2422 3.91853 11.8548 3.4576 12.5846C2.99667 13.3143 2.71164 14.1412 2.625 15H11.2105C11.359 15.305 11.68 15.5 12.0155 15.5H13.6855C14.209 15.5 14.6255 15.0775 14.6255 14.5575V12.7675C14.6255 12.404 14.4215 12.0875 14.12 11.9305C14.1032 11.8111 14.0439 11.7018 13.953 11.6227C13.862 11.5436 13.7455 11.5 13.625 11.5V8.2825C13.981 7.90581 14.1811 7.40827 14.185 6.89C14.185 6.3545 13.9735 5.865 13.625 5.4925V4.915C13.8252 4.8443 14.0081 4.7319 14.1616 4.58525C14.3152 4.43859 14.4358 4.26101 14.5156 4.06425C14.5954 3.86749 14.6325 3.65604 14.6244 3.44387C14.6164 3.23171 14.5634 3.02366 14.469 2.8335C14.4022 2.52673 14.2325 2.25204 13.988 2.05507C13.7435 1.85809 13.439 1.75068 13.125 1.75068C12.811 1.75068 12.5065 1.85809 12.262 2.05507C12.0175 2.25204 11.8478 2.52673 11.781 2.8335C11.607 3.18406 11.5769 3.58874 11.6971 3.96119C11.8173 4.33363 12.0784 4.64434 12.4245 4.827C12.27 4.79579 12.1127 4.78021 11.955 4.7805L11.028 4.779ZM3.208 14.5C3.47766 13.2357 4.22055 12.1223 5.2845 11.388C5.3075 12.6095 5.438 13.7755 5.7805 14.5H3.208ZM10.985 11.3975C11.2107 11.5542 11.422 11.7283 11.619 11.92C11.4752 11.9914 11.3534 12.1005 11.2665 12.2355C11.1797 12.3705 11.1309 12.5265 11.1255 12.687C11.1215 12.809 11.143 12.927 11.185 13.0345C11.1049 13.2381 11.1049 13.4644 11.185 13.668C11.1051 13.8711 11.1049 14.0968 11.1845 14.3C11.1595 14.3633 11.1423 14.43 11.133 14.5H10.4745C10.8195 13.778 10.9555 12.615 10.985 11.3975ZM11.625 14.6275V14.6135C11.625 14.5928 11.6268 14.5727 11.6305 14.553C11.6394 14.502 11.6586 14.4533 11.687 14.41C11.7153 14.3666 11.7523 14.3295 11.7955 14.301C11.7343 14.2597 11.6862 14.2017 11.6571 14.1339C11.6279 14.0661 11.6189 13.9913 11.631 13.9185C11.6511 13.8167 11.7099 13.7267 11.795 13.6675C11.7327 13.6252 11.6841 13.5656 11.6553 13.496C11.6265 13.4265 11.6188 13.3499 11.633 13.276C11.6548 13.1778 11.7128 13.0914 11.7955 13.034C11.7417 12.9973 11.6979 12.9476 11.6682 12.8896C11.6385 12.8316 11.6238 12.7671 11.6255 12.702C11.6301 12.6012 11.673 12.5061 11.7456 12.436C11.8181 12.3659 11.9147 12.3262 12.0155 12.325H13.6855C13.9305 12.325 14.1255 12.521 14.1255 12.7675V14.5575C14.1255 14.804 13.9305 15 13.6855 15H12.015C11.9266 15.0005 11.8407 14.971 11.7713 14.9163C11.7019 14.8617 11.6532 14.785 11.633 14.699C11.629 14.6772 11.6265 14.6551 11.6255 14.633L11.625 14.6275ZM10.9915 10.805C10.9889 10.2029 10.9691 9.60097 10.932 9H11.95C12.185 9 12.412 8.965 12.625 8.9015V11.825H12.222C11.8632 11.4274 11.4487 11.0839 10.9915 10.805ZM5.5585 6.735C5.49427 7.26338 5.44059 7.79298 5.3975 8.3235C5.22614 8.26002 5.08071 8.14144 4.98403 7.98637C4.88735 7.8313 4.84488 7.64853 4.86331 7.46672C4.88173 7.28491 4.95999 7.11436 5.08581 6.98184C5.21163 6.84932 5.37789 6.76282 5.5585 6.735ZM6.8505 8.981C5.7445 8.2475 5.6005 6.6335 5.5905 6.4985C5.62322 6.26984 5.7373 6.06064 5.91179 5.90929C6.08629 5.75794 6.30951 5.67458 6.5405 5.6745C7.513 5.6745 10.4435 5.054 10.7045 6.477V6.5145C10.7045 6.5145 10.561 8.209 9.4045 8.973L8.577 8.473C8.60036 8.43776 8.61572 8.39784 8.62203 8.35604C8.62833 8.31424 8.62542 8.27156 8.6135 8.231L8.335 7.3295C8.265 7.1325 7.9815 7.1325 7.917 7.3295L7.6385 8.231C7.62515 8.273 7.62172 8.31753 7.62849 8.36108C7.63526 8.40464 7.65203 8.44603 7.6775 8.482L6.8505 8.981ZM10.884 8.2975C10.844 7.78024 10.794 7.26381 10.734 6.7485C10.8998 6.78945 11.0488 6.88084 11.1604 7.01005C11.272 7.13927 11.3408 7.29994 11.3573 7.4699C11.3738 7.63987 11.3371 7.81076 11.2523 7.95899C11.1675 8.10722 11.0388 8.2255 10.884 8.2975ZM7.647 9.3775L8.135 9.083L8.602 9.3655C8.45805 9.45164 8.29386 9.49813 8.12612 9.50024C7.95838 9.50234 7.79307 9.46 7.647 9.3775ZM14 3.125C14 3.35706 13.9078 3.57962 13.7437 3.74372C13.5796 3.90781 13.3571 4 13.125 4C12.8929 4 12.6704 3.90781 12.5063 3.74372C12.3422 3.57962 12.25 3.35706 12.25 3.125C12.25 2.89294 12.3422 2.67038 12.5063 2.50628C12.6704 2.34219 12.8929 2.25 13.125 2.25C13.3571 2.25 13.5796 2.34219 13.7437 2.50628C13.9078 2.67038 14 2.89294 14 3.125Z" fill="white"/>
</svg>
