<svg width="25" height="25" viewBox="0 0 25 25" fill="none" xmlns="http://www.w3.org/2000/svg">
<path d="M21.8312 15.9635C22.0437 15.4573 21.4365 15.026 20.9271 15.251C19.9088 15.6975 18.8088 15.9274 17.6969 15.926C13.3375 15.926 9.80417 12.4635 9.80417 8.19167C9.80372 6.74948 10.2134 5.3369 10.9854 4.11875C11.2812 3.65208 10.926 3.00625 10.3844 3.14375C6.20833 4.20938 3.125 7.93021 3.125 12.3563C3.125 17.6135 7.47396 21.875 12.8396 21.875C16.9021 21.875 20.3813 19.4323 21.8312 15.9635Z" fill="white"/>
<path d="M16.2614 3.23229C15.7093 2.86354 15.051 3.52187 15.4187 4.07396L16.0749 5.05833C16.3414 5.45736 16.4837 5.92642 16.4837 6.40625C16.4837 6.88608 16.3414 7.35514 16.0749 7.75417L15.4187 8.73854C15.051 9.29062 15.7104 9.94896 16.2624 9.58021L17.2458 8.92396C17.6448 8.65748 18.1139 8.51525 18.5937 8.51525C19.0735 8.51525 19.5426 8.65748 19.9416 8.92396L20.926 9.58021C21.4781 9.94896 22.1364 9.29062 21.7677 8.73854L21.1114 7.75417C20.8449 7.35514 20.7027 6.88608 20.7027 6.40625C20.7027 5.92642 20.8449 5.45736 21.1114 5.05833L21.7677 4.07396C22.1364 3.52187 21.4781 2.86354 20.9249 3.23229L19.9416 3.88854C19.5426 4.15502 19.0735 4.29724 18.5937 4.29724C18.1139 4.29724 17.6448 4.15502 17.2458 3.88854L16.2614 3.23229Z" fill="white"/>
</svg>
