<svg width="253" height="66" viewBox="0 0 253 66" fill="none" xmlns="http://www.w3.org/2000/svg">
<g clip-path="url(#clip0_150_183)">
<path fill-rule="evenodd" clip-rule="evenodd" d="M37.4067 3.08668C35.9075 -1.02889 30.0901 -1.02889 28.591 3.08668L21.7882 21.7882L3.08668 28.591C-1.02889 30.0901 -1.02889 35.9075 3.08668 37.4067L21.7882 44.2094L28.591 62.911C30.0901 67.0265 35.9075 67.0265 37.4067 62.911L44.2094 44.2094L62.911 37.4067C67.0265 35.9075 67.0265 30.0901 62.911 28.591L44.2094 21.7882L37.4067 3.08668Z" fill="white"/>
<path d="M33 3.96L33 23.76" stroke="black" stroke-width="2" stroke-linecap="round"/>
<path d="M33 41.58L33 61.38" stroke="black" stroke-width="2" stroke-linecap="round"/>
<path d="M62.04 33L42.24 33" stroke="black" stroke-width="2" stroke-linecap="round"/>
<path d="M24.42 33L4.62 33" stroke="black" stroke-width="2" stroke-linecap="round"/>
</g>
<path d="M97.84 42L96.94 38.26H91.26L90.5 42H84.62L90.72 20.18L90.24 18.56H98.5L105.18 42H97.84ZM93.84 25.44L92.08 34.18H95.96L93.84 25.44ZM112.649 42H106.189V29.06L104.989 28.32V26.18L109.289 25H112.689V27.58L112.929 27.28C113.089 27.0667 113.322 26.8133 113.629 26.52C113.949 26.2267 114.302 25.94 114.689 25.66C115.076 25.3667 115.536 25.12 116.069 24.92C116.616 24.7067 117.149 24.6 117.669 24.6C119.496 24.6 120.782 25.1 121.529 26.1C122.289 27.1 122.669 28.7733 122.669 31.12C122.669 31.2 122.669 31.32 122.669 31.48C122.656 31.64 122.649 31.7667 122.649 31.86V42H116.049V31.28C116.089 30.0267 115.556 29.4 114.449 29.4C114.369 29.4 114.289 29.4067 114.209 29.42C114.142 29.4333 114.076 29.4467 114.009 29.46C113.956 29.4733 113.889 29.5 113.809 29.54C113.742 29.5667 113.682 29.5933 113.629 29.62C113.576 29.6333 113.516 29.6667 113.449 29.72C113.382 29.76 113.329 29.7933 113.289 29.82C113.249 29.8467 113.189 29.8933 113.109 29.96C113.042 30.0133 112.989 30.0533 112.949 30.08C112.922 30.1067 112.869 30.1533 112.789 30.22C112.722 30.2733 112.676 30.3133 112.649 30.34V42ZM125.173 42V29.06L123.973 28.32V26.18L128.273 25H131.613V42H125.173ZM128.073 23.16L124.793 19.86V19.16L128.073 15.88H128.833L132.253 19.16V19.86L128.833 23.16H128.073ZM140.832 42H134.373V29.06L133.173 28.32V26.18L137.472 25H140.872V27.58C140.939 27.4867 141.032 27.3667 141.152 27.22C141.286 27.06 141.526 26.8133 141.872 26.48C142.219 26.1467 142.573 25.8533 142.932 25.6C143.306 25.3467 143.753 25.12 144.272 24.92C144.806 24.7067 145.333 24.6 145.852 24.6C147.186 24.6 148.206 24.8533 148.912 25.36C149.619 25.8667 150.119 26.6933 150.412 27.84C150.866 27.0533 151.559 26.32 152.493 25.64C153.439 24.9467 154.479 24.6 155.612 24.6C156.866 24.6 157.839 24.82 158.532 25.26C159.239 25.6867 159.752 26.42 160.073 27.46C160.392 28.5 160.552 29.9667 160.552 31.86V42H154.053V31.28C154.053 30.6933 153.913 30.2333 153.633 29.9C153.353 29.5667 152.926 29.4 152.352 29.4C151.966 29.4 151.439 29.72 150.773 30.36C150.812 31 150.832 31.6933 150.832 32.44V42H144.233V31.28C144.273 30.0267 143.739 29.4 142.632 29.4C142.552 29.4 142.472 29.4067 142.393 29.42C142.326 29.4333 142.259 29.4467 142.192 29.46C142.139 29.4733 142.072 29.5 141.992 29.54C141.926 29.5667 141.866 29.5933 141.812 29.62C141.759 29.6333 141.699 29.6667 141.632 29.72C141.566 29.76 141.513 29.7933 141.472 29.82C141.432 29.8467 141.372 29.8933 141.292 29.96C141.226 30.0133 141.172 30.0533 141.132 30.08C141.106 30.1067 141.052 30.1533 140.972 30.22C140.906 30.2733 140.859 30.3133 140.832 30.34V42ZM171.723 40.22L171.523 40.44C171.39 40.6 171.183 40.7867 170.903 41C170.637 41.2133 170.323 41.4267 169.963 41.64C169.617 41.8533 169.19 42.0333 168.683 42.18C168.177 42.34 167.657 42.42 167.123 42.42C163.523 42.42 161.723 40.64 161.723 37.08C161.723 36.3867 161.85 35.7533 162.103 35.18C162.357 34.5933 162.683 34.1 163.083 33.7C163.483 33.3 163.963 32.9467 164.523 32.64C165.083 32.32 165.643 32.0733 166.203 31.9C166.777 31.7133 167.377 31.56 168.003 31.44C168.63 31.32 169.19 31.24 169.683 31.2C170.177 31.16 170.65 31.14 171.103 31.14V30.78C171.103 29.9667 170.883 29.3933 170.443 29.06C170.017 28.7267 169.323 28.56 168.363 28.56C167.537 28.56 166.677 28.66 165.783 28.86C164.89 29.0467 164.19 29.2733 163.683 29.54L162.403 26.82C163.31 26.2333 164.49 25.72 165.943 25.28C167.397 24.8267 168.877 24.6 170.383 24.6C171.717 24.6 172.817 24.7333 173.683 25C174.55 25.2533 175.25 25.6933 175.783 26.32C176.33 26.9333 176.717 27.72 176.943 28.68C177.17 29.6267 177.283 30.8333 177.283 32.3V40.44L177.843 42H172.363L171.723 40.22ZM170.143 38.9C170.317 38.9 170.477 38.8667 170.623 38.8C170.783 38.72 170.903 38.6467 170.983 38.58C171.063 38.5 171.103 38.46 171.103 38.46V33.66C170.29 33.66 169.643 33.8867 169.163 34.34C168.683 34.78 168.443 35.4667 168.443 36.4C168.443 38.0667 169.01 38.9 170.143 38.9ZM186.601 42.42C185.575 42.42 184.615 42.3267 183.721 42.14C182.841 41.9667 182.101 41.7333 181.501 41.44C180.901 41.1467 180.408 40.8667 180.021 40.6C179.648 40.3333 179.335 40.0667 179.081 39.8L179.581 34.94C180.128 35.6733 180.861 36.3133 181.781 36.86C182.701 37.3933 183.695 37.66 184.761 37.66C185.828 37.66 186.595 37.5467 187.061 37.32C187.541 37.0933 187.781 36.68 187.781 36.08C187.781 35.44 187.508 34.8933 186.961 34.44C186.428 33.9867 185.501 33.44 184.181 32.8C183.701 32.56 183.295 32.3467 182.961 32.16C182.628 31.96 182.181 31.64 181.621 31.2C181.075 30.7467 180.628 30.28 180.281 29.8C179.935 29.3067 179.628 28.68 179.361 27.92C179.095 27.1467 178.961 26.32 178.961 25.44C178.961 20.68 181.648 18.3 187.021 18.3C187.875 18.3 188.675 18.3933 189.421 18.58C190.181 18.7533 190.775 18.9467 191.201 19.16C191.628 19.3733 192.015 19.6267 192.361 19.92C192.721 20.2 192.948 20.4 193.041 20.52C193.135 20.6267 193.201 20.7133 193.241 20.78L192.241 24.64C191.721 24.0267 191.068 23.5733 190.281 23.28C189.508 22.9733 188.768 22.82 188.061 22.82C186.355 22.82 185.501 23.3533 185.501 24.42C185.501 24.7 185.555 24.9533 185.661 25.18C185.768 25.4067 185.941 25.6133 186.181 25.8C186.421 25.9867 186.641 26.1467 186.841 26.28C187.055 26.4133 187.341 26.58 187.701 26.78C188.075 26.9667 188.355 27.12 188.541 27.24C190.488 28.0667 191.915 29.0467 192.821 30.18C193.741 31.3133 194.201 32.6933 194.201 34.32C194.201 36.96 193.548 38.9733 192.241 40.36C190.948 41.7333 189.068 42.42 186.601 42.42ZM202.74 42H196.26V19.38L195.06 18.66V16.8L201.48 15.8H202.78V27.58L203.02 27.28C203.18 27.0667 203.414 26.8133 203.72 26.52C204.04 26.2267 204.394 25.94 204.78 25.66C205.167 25.3667 205.627 25.12 206.16 24.92C206.707 24.7067 207.24 24.6 207.76 24.6C209.587 24.6 210.874 25.1 211.62 26.1C212.38 27.1 212.76 28.7733 212.76 31.12C212.76 31.2 212.76 31.32 212.76 31.48C212.747 31.64 212.74 31.7667 212.74 31.86V42H206.14V31.28C206.18 30.0267 205.647 29.4 204.54 29.4C204.434 29.4 204.327 29.4067 204.22 29.42C204.127 29.4333 204.027 29.4667 203.92 29.52C203.814 29.5733 203.727 29.6133 203.66 29.64C203.607 29.6667 203.52 29.72 203.4 29.8C203.294 29.88 203.22 29.9333 203.18 29.96C203.154 29.9867 203.074 30.0533 202.94 30.16C202.82 30.2667 202.754 30.3267 202.74 30.34V42ZM223.272 40.02C223.859 40.02 224.305 39.78 224.612 39.3C224.932 38.8067 225.092 38.1333 225.092 37.28V30.96C225.092 28.36 224.479 27.06 223.252 27.06C222.679 27.06 222.232 27.2933 221.912 27.76C221.592 28.2267 221.432 28.8867 221.432 29.74V36.24C221.432 38.76 222.045 40.02 223.272 40.02ZM223.112 42.42C220.059 42.42 217.825 41.7267 216.412 40.34C214.999 38.9533 214.292 36.74 214.292 33.7C214.292 30.6867 215.005 28.42 216.432 26.9C217.859 25.3667 220.179 24.6 223.392 24.6C226.525 24.6 228.785 25.3333 230.172 26.8C231.572 28.2533 232.272 30.46 232.272 33.42C232.272 36.4867 231.532 38.7533 230.052 40.22C228.585 41.6867 226.272 42.42 223.112 42.42ZM244.691 42C243.917 42 243.211 41.92 242.571 41.76C241.931 41.6 241.371 41.4 240.891 41.16V48.04H234.451V29.06L233.251 28.32V26.18L237.551 25H240.891V26.34C241.371 25.8467 241.951 25.4333 242.631 25.1C243.311 24.7667 244.104 24.6 245.011 24.6C247.211 24.6 248.824 25.3533 249.851 26.86C250.891 28.3667 251.411 30.4533 251.411 33.12C251.411 34.3733 251.271 35.5333 250.991 36.6C250.711 37.6533 250.297 38.5867 249.751 39.4C249.204 40.2133 248.497 40.8533 247.631 41.32C246.777 41.7733 245.797 42 244.691 42ZM241.751 39.22C243.537 39.22 244.431 37.8533 244.431 35.12V31.72C244.431 30.52 244.224 29.6267 243.811 29.04C243.411 28.4533 242.891 28.16 242.251 28.16C241.811 28.16 241.357 28.2933 240.891 28.56V39.12C241.051 39.16 241.197 39.1867 241.331 39.2C241.477 39.2133 241.617 39.22 241.751 39.22Z" fill="white"/>
<defs>
<clipPath id="clip0_150_183">
<rect width="66" height="66" fill="white"/>
</clipPath>
</defs>
</svg>
